<?xml version="1.0" encoding="utf-8" standalone="no"?>
<!DOCTYPE svg PUBLIC "-//W3C//DTD SVG 1.1//EN"
  "http://www.w3.org/Graphics/SVG/1.1/DTD/svg11.dtd">
<svg xmlns:xlink="http://www.w3.org/1999/xlink" width="288pt" height="570.336036pt" viewBox="0 0 288 570.336036" xmlns="http://www.w3.org/2000/svg" version="1.1">
 <metadata>
  <rdf:RDF xmlns:dc="http://purl.org/dc/elements/1.1/" xmlns:cc="http://creativecommons.org/ns#" xmlns:rdf="http://www.w3.org/1999/02/22-rdf-syntax-ns#">
   <cc:Work>
    <dc:type rdf:resource="http://purl.org/dc/dcmitype/StillImage"/>
    <dc:date>2026-07-06T22:53:46.565394</dc:date>
    <dc:format>image/svg+xml</dc:format>
    <dc:creator>
     <cc:Agent>
      <dc:title>Matplotlib v3.11.0, https://matplotlib.org/</dc:title>
     </cc:Agent>
    </dc:creator>
   </cc:Work>
  </rdf:RDF>
 </metadata>
 <defs>
  <style type="text/css">*{stroke-linejoin: round; stroke-linecap: butt}</style>
 </defs>
 <g id="figure_1">
  <g id="patch_1">
   <path d="M 0 570.336036 
L 288 570.336036 
L 288 0 
L 0 0 
z
" style="fill: #050810"/>
  </g>
  <g id="axes_1">
   <g id="patch_2">
    <path d="M 20.657944 3.6 
L 267.342056 3.6 
Q 284.4 3.6 284.4 21.429712 
L 284.4 539.862867 
Q 284.4 557.692579 267.342056 557.692579 
L 20.657944 557.692579 
Q 3.6 557.692579 3.6 539.862867 
L 3.6 21.429712 
Q 3.6 3.6 20.657944 3.6 
z
" clip-path="url(#p3f8d1fb2ec)" style="fill: #050810; stroke: #1d2a3a; stroke-width: 1.2; stroke-linejoin: miter"/>
   </g>
   <g id="patch_3">
    <path d="M 28.530841 20.058195 
L 259.469159 20.058195 
Q 268.654206 20.058195 268.654206 29.658809 
L 268.654206 531.63377 
Q 268.654206 541.234384 259.469159 541.234384 
L 28.530841 541.234384 
Q 19.345794 541.234384 19.345794 531.63377 
L 19.345794 29.658809 
Q 19.345794 20.058195 28.530841 20.058195 
z
" clip-path="url(#p3f8d1fb2ec)" style="fill: #0a1018"/>
   </g>
   <g id="patch_4">
    <path d="M 19.345794 20.058195 
L 268.654206 20.058195 
Q 268.654206 20.058195 268.654206 20.058195 
L 268.654206 58.460651 
Q 268.654206 58.460651 268.654206 58.460651 
L 19.345794 58.460651 
Q 19.345794 58.460651 19.345794 58.460651 
L 19.345794 20.058195 
Q 19.345794 20.058195 19.345794 20.058195 
z
" clip-path="url(#p3f8d1fb2ec)" style="fill: #0f1723"/>
   </g>
   <g id="patch_5">
    <path d="M 35.091589 73.547331 
L 252.908411 73.547331 
Q 258.157009 73.547331 258.157009 79.033396 
L 258.157009 127.036466 
Q 258.157009 132.522531 252.908411 132.522531 
L 35.091589 132.522531 
Q 29.842991 132.522531 29.842991 127.036466 
L 29.842991 79.033396 
Q 29.842991 73.547331 35.091589 73.547331 
z
" clip-path="url(#p3f8d1fb2ec)" style="fill: #0f1723; stroke: #1d2a3a; stroke-width: 0.7; stroke-linejoin: miter"/>
   </g>
   <g id="patch_6">
    <path d="M 35.091589 144.866177 
L 252.908411 144.866177 
Q 258.157009 144.866177 258.157009 150.352242 
L 258.157009 245.672624 
Q 258.157009 251.158689 252.908411 251.158689 
L 35.091589 251.158689 
Q 29.842991 251.158689 29.842991 245.672624 
L 29.842991 150.352242 
Q 29.842991 144.866177 35.091589 144.866177 
z
" clip-path="url(#p3f8d1fb2ec)" style="fill: #0f1723; stroke: #1d2a3a; stroke-width: 0.7; stroke-linejoin: miter"/>
   </g>
   <g id="patch_7">
    <path d="M 39.815327 196.983796 
L 248.184673 196.983796 
Q 248.971963 196.983796 248.971963 197.806706 
L 248.971963 203.704226 
Q 248.971963 204.527136 248.184673 204.527136 
L 39.815327 204.527136 
Q 39.028037 204.527136 39.028037 203.704226 
L 39.028037 197.806706 
Q 39.028037 196.983796 39.815327 196.983796 
z
" clip-path="url(#p3f8d1fb2ec)" style="fill: #22303f"/>
   </g>
   <g id="patch_8">
    <path d="M 39.815327 210.013201 
L 218.792523 210.013201 
Q 219.579813 210.013201 219.579813 210.836111 
L 219.579813 216.733631 
Q 219.579813 217.55654 218.792523 217.55654 
L 39.815327 217.55654 
Q 39.028037 217.55654 39.028037 216.733631 
L 39.028037 210.836111 
Q 39.028037 210.013201 39.815327 210.013201 
z
" clip-path="url(#p3f8d1fb2ec)" style="fill: #22303f"/>
   </g>
   <g id="patch_9">
    <path d="M 39.815327 223.042606 
L 153.709907 223.042606 
Q 154.497196 223.042606 154.497196 223.865515 
L 154.497196 229.763035 
Q 154.497196 230.585945 153.709907 230.585945 
L 39.815327 230.585945 
Q 39.028037 230.585945 39.028037 229.763035 
L 39.028037 223.865515 
Q 39.028037 223.042606 39.815327 223.042606 
z
" clip-path="url(#p3f8d1fb2ec)" style="fill: #22303f"/>
   </g>
   <g id="patch_10">
    <path d="M 35.091589 263.502336 
L 252.908411 263.502336 
Q 258.157009 263.502336 258.157009 268.988401 
L 258.157009 391.739109 
Q 258.157009 397.225174 252.908411 397.225174 
L 35.091589 397.225174 
Q 29.842991 397.225174 29.842991 391.739109 
L 29.842991 268.988401 
Q 29.842991 263.502336 35.091589 263.502336 
z
" clip-path="url(#p3f8d1fb2ec)" style="fill: #0f1723; stroke: #1d2a3a; stroke-width: 0.7; stroke-linejoin: miter"/>
   </g>
   <g id="patch_11">
    <path d="M 35.091589 409.56882 
L 252.908411 409.56882 
Q 258.157009 409.56882 258.157009 415.054885 
L 258.157009 524.09043 
Q 258.157009 529.576495 252.908411 529.576495 
L 35.091589 529.576495 
Q 29.842991 529.576495 29.842991 524.09043 
L 29.842991 415.054885 
Q 29.842991 409.56882 35.091589 409.56882 
z
" clip-path="url(#p3f8d1fb2ec)" style="fill: #0f1723; stroke: #1d2a3a; stroke-width: 0.7; stroke-linejoin: miter"/>
   </g>
   <g id="line2d_1">
    <path d="M 19.345794 58.460651 
L 268.654206 58.460651 
" clip-path="url(#p3f8d1fb2ec)" style="fill: none; stroke: #1d2a3a; stroke-width: 0.9; stroke-linecap: square"/>
   </g>
   <g id="patch_12">
    <path d="M 101.683178 31.716084 
L 153.513084 31.716084 
Q 155.809346 31.716084 155.809346 34.116237 
L 155.809346 44.402609 
Q 155.809346 46.802763 153.513084 46.802763 
L 101.683178 46.802763 
Q 99.386916 46.802763 99.386916 44.402609 
L 99.386916 34.116237 
Q 99.386916 31.716084 101.683178 31.716084 
z
" clip-path="url(#p3f8d1fb2ec)" style="fill: #16202e"/>
   </g>
   <g id="patch_13">
    <path d="M 202.062617 31.716084 
L 256.516822 31.716084 
Q 258.813084 31.716084 258.813084 34.116237 
L 258.813084 44.402609 
Q 258.813084 46.802763 256.516822 46.802763 
L 202.062617 46.802763 
Q 199.766355 46.802763 199.766355 44.402609 
L 199.766355 34.116237 
Q 199.766355 31.716084 202.062617 31.716084 
z
" clip-path="url(#p3f8d1fb2ec)" style="fill: #0a1018; stroke: #1d2a3a; stroke-width: 0.6; stroke-linejoin: miter"/>
   </g>
   <g id="patch_14">
    <path d="M 41.652336 100.977656 
L 177.95843 100.977656 
Q 180.582729 100.977656 180.582729 103.720689 
L 180.582729 118.807368 
Q 180.582729 121.550401 177.95843 121.550401 
L 41.652336 121.550401 
Q 39.028037 121.550401 39.028037 118.807368 
L 39.028037 103.720689 
Q 39.028037 100.977656 41.652336 100.977656 
z
" clip-path="url(#p3f8d1fb2ec)" style="fill: #0a1018; stroke: #1d2a3a; stroke-width: 0.6; stroke-linejoin: miter"/>
   </g>
   <g id="patch_15">
    <path d="M 183.102056 100.977656 
L 246.347664 100.977656 
Q 248.971963 100.977656 248.971963 103.720689 
L 248.971963 118.807368 
Q 248.971963 121.550401 246.347664 121.550401 
L 183.102056 121.550401 
Q 180.477757 121.550401 180.477757 118.807368 
L 180.477757 103.720689 
Q 180.477757 100.977656 183.102056 100.977656 
z
" clip-path="url(#p3f8d1fb2ec)" style="fill: #0a1018; stroke: #4fc3f7; stroke-width: 0.8; stroke-linejoin: miter"/>
   </g>
   <g id="patch_16">
    <path d="M 44.93271 288.189629 
L 149.904673 288.189629 
Q 155.809346 288.189629 155.809346 294.361452 
L 155.809346 297.790243 
Q 155.809346 303.962066 149.904673 303.962066 
L 44.93271 303.962066 
Q 39.028037 303.962066 39.028037 297.790243 
L 39.028037 294.361452 
Q 39.028037 288.189629 44.93271 288.189629 
z
" clip-path="url(#p3f8d1fb2ec)" style="fill: #0a1018; stroke: #1d2a3a; stroke-width: 0.6; stroke-linejoin: miter"/>
   </g>
   <g id="patch_17">
    <path d="M 169.586916 288.189629 
L 248.315888 288.189629 
Q 254.220561 288.189629 254.220561 294.361452 
L 254.220561 297.790243 
Q 254.220561 303.962066 248.315888 303.962066 
L 169.586916 303.962066 
Q 163.682243 303.962066 163.682243 297.790243 
L 163.682243 294.361452 
Q 163.682243 288.189629 169.586916 288.189629 
z
" clip-path="url(#p3f8d1fb2ec)" style="fill: #0a1018; stroke: #1d2a3a; stroke-width: 0.6; stroke-linejoin: miter"/>
   </g>
   <g id="patch_18">
    <path d="M 43.620561 312.876922 
L 198.821607 312.876922 
Q 203.414131 312.876922 203.414131 317.677229 
L 203.414131 330.020876 
Q 203.414131 334.821183 198.821607 334.821183 
L 43.620561 334.821183 
Q 39.028037 334.821183 39.028037 330.020876 
L 39.028037 317.677229 
Q 39.028037 312.876922 43.620561 312.876922 
z
" clip-path="url(#p3f8d1fb2ec)" style="fill: #16202e"/>
   </g>
   <g id="patch_19">
    <path d="M 121.142355 338.935732 
L 244.379439 338.935732 
Q 248.971963 338.935732 248.971963 343.736039 
L 248.971963 354.708169 
Q 248.971963 359.508476 244.379439 359.508476 
L 121.142355 359.508476 
Q 116.549832 359.508476 116.549832 354.708169 
L 116.549832 343.736039 
Q 116.549832 338.935732 121.142355 338.935732 
z
" clip-path="url(#p3f8d1fb2ec)" style="fill: #4fc3f7"/>
   </g>
   <g id="patch_20">
    <path d="M 42.308411 372.537881 
L 200.133757 372.537881 
Q 203.414131 372.537881 203.414131 375.966671 
L 203.414131 386.938802 
Q 203.414131 390.367592 200.133757 390.367592 
L 42.308411 390.367592 
Q 39.028037 390.367592 39.028037 386.938802 
L 39.028037 375.966671 
Q 39.028037 372.537881 42.308411 372.537881 
z
" clip-path="url(#p3f8d1fb2ec)" style="fill: #0a1018; stroke: #1d2a3a; stroke-width: 0.6; stroke-linejoin: miter"/>
   </g>
   <g id="patch_21">
    <path d="M 206.589533 372.537881 
L 245.691589 372.537881 
Q 248.971963 372.537881 248.971963 375.966671 
L 248.971963 386.938802 
Q 248.971963 390.367592 245.691589 390.367592 
L 206.589533 390.367592 
Q 203.309159 390.367592 203.309159 386.938802 
L 203.309159 375.966671 
Q 203.309159 372.537881 206.589533 372.537881 
z
" clip-path="url(#p3f8d1fb2ec)" style="fill: #4fc3f7"/>
   </g>
   <g id="patch_22">
    <path d="M 42.308411 434.256113 
L 245.691589 434.256113 
Q 248.971963 434.256113 248.971963 437.684904 
L 248.971963 474.715844 
Q 248.971963 478.144635 245.691589 478.144635 
L 42.308411 478.144635 
Q 39.028037 478.144635 39.028037 474.715844 
L 39.028037 437.684904 
Q 39.028037 434.256113 42.308411 434.256113 
L 42.308411 434.256113 
z
" clip-path="url(#p3f8d1fb2ec)" style="fill: none; stroke-dasharray: 2.7,1.8; stroke-dashoffset: 0; stroke: #64748b; stroke-width: 0.9; stroke-linejoin: miter"/>
   </g>
   <g id="patch_23">
    <path d="M 42.308411 489.116765 
L 245.691589 489.116765 
Q 248.971963 489.116765 248.971963 492.545556 
L 248.971963 503.517686 
Q 248.971963 506.946477 245.691589 506.946477 
L 42.308411 506.946477 
Q 39.028037 506.946477 39.028037 503.517686 
L 39.028037 492.545556 
Q 39.028037 489.116765 42.308411 489.116765 
z
" clip-path="url(#p3f8d1fb2ec)" style="fill: #0a1018; stroke: #1d2a3a; stroke-width: 0.6; stroke-linejoin: miter"/>
   </g>
   <g id="patch_24">
    <path d="M 42.964486 514.489816 
L 245.035514 514.489816 
Q 248.971963 514.489816 248.971963 518.604365 
L 248.971963 530.948012 
Q 248.971963 535.06256 245.035514 535.06256 
L 42.964486 535.06256 
Q 39.028037 535.06256 39.028037 530.948012 
L 39.028037 518.604365 
Q 39.028037 514.489816 42.964486 514.489816 
z
" clip-path="url(#p3f8d1fb2ec)" style="fill: #4fc3f7"/>
   </g>
   <g id="text_1">
    <!-- VARUNA -->
    <g style="fill: #4fc3f7" transform="translate(29.842991 41.467431) scale(0.085 -0.085)">
     <defs>
      <path id="DejaVuSans-Bold-39" d="M 31 4666 
L 1241 4666 
L 2478 1222 
L 3713 4666 
L 4922 4666 
L 3194 0 
L 1759 0 
L 31 4666 
z
" transform="scale(0.015625)"/>
      <path id="DejaVuSans-Bold-24" d="M 3419 850 
L 1538 850 
L 1241 0 
L 31 0 
L 1759 4666 
L 3194 4666 
L 4922 0 
L 3713 0 
L 3419 850 
z
M 1838 1716 
L 3116 1716 
L 2478 3572 
L 1838 1716 
z
" transform="scale(0.015625)"/>
      <path id="DejaVuSans-Bold-35" d="M 2297 2597 
Q 2675 2597 2839 2737 
Q 3003 2878 3003 3200 
Q 3003 3519 2839 3656 
Q 2675 3794 2297 3794 
L 1791 3794 
L 1791 2597 
L 2297 2597 
z
M 1791 1766 
L 1791 0 
L 588 0 
L 588 4666 
L 2425 4666 
Q 3347 4666 3776 4356 
Q 4206 4047 4206 3378 
Q 4206 2916 3982 2619 
Q 3759 2322 3309 2181 
Q 3556 2125 3751 1926 
Q 3947 1728 4147 1325 
L 4800 0 
L 3519 0 
L 2950 1159 
Q 2778 1509 2601 1637 
Q 2425 1766 2131 1766 
L 1791 1766 
z
" transform="scale(0.015625)"/>
      <path id="DejaVuSans-Bold-38" d="M 588 4666 
L 1791 4666 
L 1791 1869 
Q 1791 1291 1980 1042 
Q 2169 794 2597 794 
Q 3028 794 3217 1042 
Q 3406 1291 3406 1869 
L 3406 4666 
L 4609 4666 
L 4609 1869 
Q 4609 878 4112 393 
Q 3616 -91 2597 -91 
Q 1581 -91 1084 393 
Q 588 878 588 1869 
L 588 4666 
z
" transform="scale(0.015625)"/>
      <path id="DejaVuSans-Bold-31" d="M 588 4666 
L 1931 4666 
L 3628 1466 
L 3628 4666 
L 4769 4666 
L 4769 0 
L 3425 0 
L 1728 3200 
L 1728 0 
L 588 0 
L 588 4666 
z
" transform="scale(0.015625)"/>
     </defs>
     <use xlink:href="#DejaVuSans-Bold-39"/>
     <use xlink:href="#DejaVuSans-Bold-24" transform="translate(70.609375 0)"/>
     <use xlink:href="#DejaVuSans-Bold-35" transform="translate(148 0)"/>
     <use xlink:href="#DejaVuSans-Bold-38" transform="translate(225 0)"/>
     <use xlink:href="#DejaVuSans-Bold-31" transform="translate(306.203125 0)"/>
     <use xlink:href="#DejaVuSans-Bold-24" transform="translate(389.890625 0)"/>
    </g>
   </g>
   <g id="text_2">
    <!-- Citizen -->
    <g style="fill: #94a3b8" transform="translate(120.758443 40.298642) scale(0.04 -0.04)">
     <defs>
      <path id="DejaVuSans-26" d="M 4122 4306 
L 4122 3641 
Q 3803 3938 3442 4084 
Q 3081 4231 2675 4231 
Q 1875 4231 1450 3742 
Q 1025 3253 1025 2328 
Q 1025 1406 1450 917 
Q 1875 428 2675 428 
Q 3081 428 3442 575 
Q 3803 722 4122 1019 
L 4122 359 
Q 3791 134 3420 21 
Q 3050 -91 2638 -91 
Q 1578 -91 968 557 
Q 359 1206 359 2328 
Q 359 3453 968 4101 
Q 1578 4750 2638 4750 
Q 3056 4750 3426 4639 
Q 3797 4528 4122 4306 
z
" transform="scale(0.015625)"/>
      <path id="DejaVuSans-4c" d="M 603 3500 
L 1178 3500 
L 1178 0 
L 603 0 
L 603 3500 
z
M 603 4863 
L 1178 4863 
L 1178 4134 
L 603 4134 
L 603 4863 
z
" transform="scale(0.015625)"/>
      <path id="DejaVuSans-57" d="M 1172 4494 
L 1172 3500 
L 2356 3500 
L 2356 3053 
L 1172 3053 
L 1172 1153 
Q 1172 725 1289 603 
Q 1406 481 1766 481 
L 2356 481 
L 2356 0 
L 1766 0 
Q 1100 0 847 248 
Q 594 497 594 1153 
L 594 3053 
L 172 3053 
L 172 3500 
L 594 3500 
L 594 4494 
L 1172 4494 
z
" transform="scale(0.015625)"/>
      <path id="DejaVuSans-5d" d="M 353 3500 
L 3084 3500 
L 3084 2975 
L 922 459 
L 3084 459 
L 3084 0 
L 275 0 
L 275 525 
L 2438 3041 
L 353 3041 
L 353 3500 
z
" transform="scale(0.015625)"/>
      <path id="DejaVuSans-48" d="M 3597 1894 
L 3597 1613 
L 953 1613 
Q 991 1019 1311 708 
Q 1631 397 2203 397 
Q 2534 397 2845 478 
Q 3156 559 3463 722 
L 3463 178 
Q 3153 47 2828 -22 
Q 2503 -91 2169 -91 
Q 1331 -91 842 396 
Q 353 884 353 1716 
Q 353 2575 817 3079 
Q 1281 3584 2069 3584 
Q 2775 3584 3186 3129 
Q 3597 2675 3597 1894 
z
M 3022 2063 
Q 3016 2534 2758 2815 
Q 2500 3097 2075 3097 
Q 1594 3097 1305 2825 
Q 1016 2553 972 2059 
L 3022 2063 
z
" transform="scale(0.015625)"/>
      <path id="DejaVuSans-51" d="M 3513 2113 
L 3513 0 
L 2938 0 
L 2938 2094 
Q 2938 2591 2744 2837 
Q 2550 3084 2163 3084 
Q 1697 3084 1428 2787 
Q 1159 2491 1159 1978 
L 1159 0 
L 581 0 
L 581 3500 
L 1159 3500 
L 1159 2956 
Q 1366 3272 1645 3428 
Q 1925 3584 2291 3584 
Q 2894 3584 3203 3211 
Q 3513 2838 3513 2113 
z
" transform="scale(0.015625)"/>
     </defs>
     <use xlink:href="#DejaVuSans-26"/>
     <use xlink:href="#DejaVuSans-4c" transform="translate(69.828125 0)"/>
     <use xlink:href="#DejaVuSans-57" transform="translate(97.609375 0)"/>
     <use xlink:href="#DejaVuSans-4c" transform="translate(136.8125 0)"/>
     <use xlink:href="#DejaVuSans-5d" transform="translate(164.59375 0)"/>
     <use xlink:href="#DejaVuSans-48" transform="translate(217.078125 0)"/>
     <use xlink:href="#DejaVuSans-51" transform="translate(278.609375 0)"/>
    </g>
   </g>
   <g id="text_3">
    <!-- Command -->
    <g style="fill: #64748b" transform="translate(220.038282 40.19472) scale(0.036 -0.036)">
     <defs>
      <path id="DejaVuSans-52" d="M 1959 3097 
Q 1497 3097 1228 2736 
Q 959 2375 959 1747 
Q 959 1119 1226 758 
Q 1494 397 1959 397 
Q 2419 397 2687 759 
Q 2956 1122 2956 1747 
Q 2956 2369 2687 2733 
Q 2419 3097 1959 3097 
z
M 1959 3584 
Q 2709 3584 3137 3096 
Q 3566 2609 3566 1747 
Q 3566 888 3137 398 
Q 2709 -91 1959 -91 
Q 1206 -91 779 398 
Q 353 888 353 1747 
Q 353 2609 779 3096 
Q 1206 3584 1959 3584 
z
" transform="scale(0.015625)"/>
      <path id="DejaVuSans-50" d="M 3328 2828 
Q 3544 3216 3844 3400 
Q 4144 3584 4550 3584 
Q 5097 3584 5394 3201 
Q 5691 2819 5691 2113 
L 5691 0 
L 5113 0 
L 5113 2094 
Q 5113 2597 4934 2840 
Q 4756 3084 4391 3084 
Q 3944 3084 3684 2787 
Q 3425 2491 3425 1978 
L 3425 0 
L 2847 0 
L 2847 2094 
Q 2847 2600 2669 2842 
Q 2491 3084 2119 3084 
Q 1678 3084 1418 2786 
Q 1159 2488 1159 1978 
L 1159 0 
L 581 0 
L 581 3500 
L 1159 3500 
L 1159 2956 
Q 1356 3278 1631 3431 
Q 1906 3584 2284 3584 
Q 2666 3584 2933 3390 
Q 3200 3197 3328 2828 
z
" transform="scale(0.015625)"/>
      <path id="DejaVuSans-44" d="M 2194 1759 
Q 1497 1759 1228 1600 
Q 959 1441 959 1056 
Q 959 750 1161 570 
Q 1363 391 1709 391 
Q 2188 391 2477 730 
Q 2766 1069 2766 1631 
L 2766 1759 
L 2194 1759 
z
M 3341 1997 
L 3341 0 
L 2766 0 
L 2766 531 
Q 2569 213 2275 61 
Q 1981 -91 1556 -91 
Q 1019 -91 701 211 
Q 384 513 384 1019 
Q 384 1609 779 1909 
Q 1175 2209 1959 2209 
L 2766 2209 
L 2766 2266 
Q 2766 2663 2505 2880 
Q 2244 3097 1772 3097 
Q 1472 3097 1187 3025 
Q 903 2953 641 2809 
L 641 3341 
Q 956 3463 1253 3523 
Q 1550 3584 1831 3584 
Q 2591 3584 2966 3190 
Q 3341 2797 3341 1997 
z
" transform="scale(0.015625)"/>
      <path id="DejaVuSans-47" d="M 2906 2969 
L 2906 4863 
L 3481 4863 
L 3481 0 
L 2906 0 
L 2906 525 
Q 2725 213 2448 61 
Q 2172 -91 1784 -91 
Q 1150 -91 751 415 
Q 353 922 353 1747 
Q 353 2572 751 3078 
Q 1150 3584 1784 3584 
Q 2172 3584 2448 3432 
Q 2725 3281 2906 2969 
z
M 947 1747 
Q 947 1113 1208 752 
Q 1469 391 1925 391 
Q 2381 391 2643 752 
Q 2906 1113 2906 1747 
Q 2906 2381 2643 2742 
Q 2381 3103 1925 3103 
Q 1469 3103 1208 2742 
Q 947 2381 947 1747 
z
" transform="scale(0.015625)"/>
     </defs>
     <use xlink:href="#DejaVuSans-26"/>
     <use xlink:href="#DejaVuSans-52" transform="translate(69.828125 0)"/>
     <use xlink:href="#DejaVuSans-50" transform="translate(131.015625 0)"/>
     <use xlink:href="#DejaVuSans-50" transform="translate(228.421875 0)"/>
     <use xlink:href="#DejaVuSans-44" transform="translate(325.828125 0)"/>
     <use xlink:href="#DejaVuSans-51" transform="translate(387.109375 0)"/>
     <use xlink:href="#DejaVuSans-47" transform="translate(450.484375 0)"/>
    </g>
   </g>
   <g id="text_4">
    <!-- Your area -->
    <g style="fill: #e6eef5" transform="translate(39.028037 89.299033) scale(0.052 -0.052)">
     <defs>
      <path id="DejaVuSans-Bold-3c" d="M -63 4666 
L 1253 4666 
L 2316 3003 
L 3378 4666 
L 4697 4666 
L 2919 1966 
L 2919 0 
L 1716 0 
L 1716 1966 
L -63 4666 
z
" transform="scale(0.015625)"/>
      <path id="DejaVuSans-Bold-52" d="M 2203 2784 
Q 1831 2784 1636 2517 
Q 1441 2250 1441 1747 
Q 1441 1244 1636 976 
Q 1831 709 2203 709 
Q 2569 709 2762 976 
Q 2956 1244 2956 1747 
Q 2956 2250 2762 2517 
Q 2569 2784 2203 2784 
z
M 2203 3584 
Q 3106 3584 3614 3096 
Q 4122 2609 4122 1747 
Q 4122 884 3614 396 
Q 3106 -91 2203 -91 
Q 1297 -91 786 396 
Q 275 884 275 1747 
Q 275 2609 786 3096 
Q 1297 3584 2203 3584 
z
" transform="scale(0.015625)"/>
      <path id="DejaVuSans-Bold-58" d="M 500 1363 
L 500 3500 
L 1625 3500 
L 1625 3150 
Q 1625 2866 1622 2436 
Q 1619 2006 1619 1863 
Q 1619 1441 1641 1255 
Q 1663 1069 1716 984 
Q 1784 875 1895 815 
Q 2006 756 2150 756 
Q 2500 756 2700 1025 
Q 2900 1294 2900 1772 
L 2900 3500 
L 4019 3500 
L 4019 0 
L 2900 0 
L 2900 506 
Q 2647 200 2364 54 
Q 2081 -91 1741 -91 
Q 1134 -91 817 281 
Q 500 653 500 1363 
z
" transform="scale(0.015625)"/>
      <path id="DejaVuSans-Bold-55" d="M 3138 2547 
Q 2991 2616 2845 2648 
Q 2700 2681 2553 2681 
Q 2122 2681 1889 2404 
Q 1656 2128 1656 1613 
L 1656 0 
L 538 0 
L 538 3500 
L 1656 3500 
L 1656 2925 
Q 1872 3269 2151 3426 
Q 2431 3584 2822 3584 
Q 2878 3584 2943 3579 
Q 3009 3575 3134 3559 
L 3138 2547 
z
" transform="scale(0.015625)"/>
      <path id="DejaVuSans-Bold-3" transform="scale(0.015625)"/>
      <path id="DejaVuSans-Bold-44" d="M 2106 1575 
Q 1756 1575 1579 1456 
Q 1403 1338 1403 1106 
Q 1403 894 1545 773 
Q 1688 653 1941 653 
Q 2256 653 2472 879 
Q 2688 1106 2688 1447 
L 2688 1575 
L 2106 1575 
z
M 3816 1997 
L 3816 0 
L 2688 0 
L 2688 519 
Q 2463 200 2181 54 
Q 1900 -91 1497 -91 
Q 953 -91 614 226 
Q 275 544 275 1050 
Q 275 1666 698 1953 
Q 1122 2241 2028 2241 
L 2688 2241 
L 2688 2328 
Q 2688 2594 2478 2717 
Q 2269 2841 1825 2841 
Q 1466 2841 1156 2769 
Q 847 2697 581 2553 
L 581 3406 
Q 941 3494 1303 3539 
Q 1666 3584 2028 3584 
Q 2975 3584 3395 3211 
Q 3816 2838 3816 1997 
z
" transform="scale(0.015625)"/>
      <path id="DejaVuSans-Bold-48" d="M 4031 1759 
L 4031 1441 
L 1416 1441 
Q 1456 1047 1700 850 
Q 1944 653 2381 653 
Q 2734 653 3104 758 
Q 3475 863 3866 1075 
L 3866 213 
Q 3469 63 3072 -14 
Q 2675 -91 2278 -91 
Q 1328 -91 801 392 
Q 275 875 275 1747 
Q 275 2603 792 3093 
Q 1309 3584 2216 3584 
Q 3041 3584 3536 3087 
Q 4031 2591 4031 1759 
z
M 2881 2131 
Q 2881 2450 2695 2645 
Q 2509 2841 2209 2841 
Q 1884 2841 1681 2658 
Q 1478 2475 1428 2131 
L 2881 2131 
z
" transform="scale(0.015625)"/>
     </defs>
     <use xlink:href="#DejaVuSans-Bold-3c"/>
     <use xlink:href="#DejaVuSans-Bold-52" transform="translate(63.234375 0)"/>
     <use xlink:href="#DejaVuSans-Bold-58" transform="translate(131.9375 0)"/>
     <use xlink:href="#DejaVuSans-Bold-55" transform="translate(203.125 0)"/>
     <use xlink:href="#DejaVuSans-Bold-3" transform="translate(252.4375 0)"/>
     <use xlink:href="#DejaVuSans-Bold-44" transform="translate(287.25 0)"/>
     <use xlink:href="#DejaVuSans-Bold-55" transform="translate(354.734375 0)"/>
     <use xlink:href="#DejaVuSans-Bold-48" transform="translate(404.046875 0)"/>
     <use xlink:href="#DejaVuSans-Bold-44" transform="translate(471.875 0)"/>
    </g>
   </g>
   <g id="text_5">
    <!-- Select your ward… -->
    <g style="fill: #64748b" transform="translate(45.588785 112.277267) scale(0.039 -0.039)">
     <defs>
      <path id="DejaVuSans-36" d="M 3425 4513 
L 3425 3897 
Q 3066 4069 2747 4153 
Q 2428 4238 2131 4238 
Q 1616 4238 1336 4038 
Q 1056 3838 1056 3469 
Q 1056 3159 1242 3001 
Q 1428 2844 1947 2747 
L 2328 2669 
Q 3034 2534 3370 2195 
Q 3706 1856 3706 1288 
Q 3706 609 3251 259 
Q 2797 -91 1919 -91 
Q 1588 -91 1214 -16 
Q 841 59 441 206 
L 441 856 
Q 825 641 1194 531 
Q 1563 422 1919 422 
Q 2459 422 2753 634 
Q 3047 847 3047 1241 
Q 3047 1584 2836 1778 
Q 2625 1972 2144 2069 
L 1759 2144 
Q 1053 2284 737 2584 
Q 422 2884 422 3419 
Q 422 4038 858 4394 
Q 1294 4750 2059 4750 
Q 2388 4750 2728 4690 
Q 3069 4631 3425 4513 
z
" transform="scale(0.015625)"/>
      <path id="DejaVuSans-4f" d="M 603 4863 
L 1178 4863 
L 1178 0 
L 603 0 
L 603 4863 
z
" transform="scale(0.015625)"/>
      <path id="DejaVuSans-46" d="M 3122 3366 
L 3122 2828 
Q 2878 2963 2633 3030 
Q 2388 3097 2138 3097 
Q 1578 3097 1268 2742 
Q 959 2388 959 1747 
Q 959 1106 1268 751 
Q 1578 397 2138 397 
Q 2388 397 2633 464 
Q 2878 531 3122 666 
L 3122 134 
Q 2881 22 2623 -34 
Q 2366 -91 2075 -91 
Q 1284 -91 818 406 
Q 353 903 353 1747 
Q 353 2603 823 3093 
Q 1294 3584 2113 3584 
Q 2378 3584 2631 3529 
Q 2884 3475 3122 3366 
z
" transform="scale(0.015625)"/>
      <path id="DejaVuSans-3" transform="scale(0.015625)"/>
      <path id="DejaVuSans-5c" d="M 2059 -325 
Q 1816 -950 1584 -1140 
Q 1353 -1331 966 -1331 
L 506 -1331 
L 506 -850 
L 844 -850 
Q 1081 -850 1212 -737 
Q 1344 -625 1503 -206 
L 1606 56 
L 191 3500 
L 800 3500 
L 1894 763 
L 2988 3500 
L 3597 3500 
L 2059 -325 
z
" transform="scale(0.015625)"/>
      <path id="DejaVuSans-58" d="M 544 1381 
L 544 3500 
L 1119 3500 
L 1119 1403 
Q 1119 906 1312 657 
Q 1506 409 1894 409 
Q 2359 409 2629 706 
Q 2900 1003 2900 1516 
L 2900 3500 
L 3475 3500 
L 3475 0 
L 2900 0 
L 2900 538 
Q 2691 219 2414 64 
Q 2138 -91 1772 -91 
Q 1169 -91 856 284 
Q 544 659 544 1381 
z
M 1991 3584 
L 1991 3584 
z
" transform="scale(0.015625)"/>
      <path id="DejaVuSans-55" d="M 2631 2963 
Q 2534 3019 2420 3045 
Q 2306 3072 2169 3072 
Q 1681 3072 1420 2755 
Q 1159 2438 1159 1844 
L 1159 0 
L 581 0 
L 581 3500 
L 1159 3500 
L 1159 2956 
Q 1341 3275 1631 3429 
Q 1922 3584 2338 3584 
Q 2397 3584 2469 3576 
Q 2541 3569 2628 3553 
L 2631 2963 
z
" transform="scale(0.015625)"/>
      <path id="DejaVuSans-5a" d="M 269 3500 
L 844 3500 
L 1563 769 
L 2278 3500 
L 2956 3500 
L 3675 769 
L 4391 3500 
L 4966 3500 
L 4050 0 
L 3372 0 
L 2619 2869 
L 1863 0 
L 1184 0 
L 269 3500 
z
" transform="scale(0.015625)"/>
      <path id="DejaVuSans-b08" d="M 2869 794 
L 3531 794 
L 3531 0 
L 2869 0 
L 2869 794 
z
M 4997 794 
L 5663 794 
L 5663 0 
L 4997 0 
L 4997 794 
z
M 738 794 
L 1403 794 
L 1403 0 
L 738 0 
L 738 794 
z
" transform="scale(0.015625)"/>
     </defs>
     <use xlink:href="#DejaVuSans-36"/>
     <use xlink:href="#DejaVuSans-48" transform="translate(63.484375 0)"/>
     <use xlink:href="#DejaVuSans-4f" transform="translate(125.015625 0)"/>
     <use xlink:href="#DejaVuSans-48" transform="translate(152.796875 0)"/>
     <use xlink:href="#DejaVuSans-46" transform="translate(214.328125 0)"/>
     <use xlink:href="#DejaVuSans-57" transform="translate(269.3125 0)"/>
     <use xlink:href="#DejaVuSans-3" transform="translate(308.515625 0)"/>
     <use xlink:href="#DejaVuSans-5c" transform="translate(340.296875 0)"/>
     <use xlink:href="#DejaVuSans-52" transform="translate(399.484375 0)"/>
     <use xlink:href="#DejaVuSans-58" transform="translate(460.671875 0)"/>
     <use xlink:href="#DejaVuSans-55" transform="translate(524.046875 0)"/>
     <use xlink:href="#DejaVuSans-3" transform="translate(565.15625 0)"/>
     <use xlink:href="#DejaVuSans-5a" transform="translate(596.9375 0)"/>
     <use xlink:href="#DejaVuSans-44" transform="translate(678.71875 0)"/>
     <use xlink:href="#DejaVuSans-55" transform="translate(740 0)"/>
     <use xlink:href="#DejaVuSans-47" transform="translate(779.359375 0)"/>
     <use xlink:href="#DejaVuSans-b08" transform="translate(842.84375 0)"/>
    </g>
   </g>
   <g id="text_6">
    <!-- Locate -->
    <g style="fill: #4fc3f7" transform="translate(207.416016 112.277114) scale(0.039 -0.039)">
     <defs>
      <path id="DejaVuSans-Bold-2f" d="M 588 4666 
L 1791 4666 
L 1791 909 
L 3903 909 
L 3903 0 
L 588 0 
L 588 4666 
z
" transform="scale(0.015625)"/>
      <path id="DejaVuSans-Bold-46" d="M 3366 3391 
L 3366 2478 
Q 3138 2634 2908 2709 
Q 2678 2784 2431 2784 
Q 1963 2784 1702 2511 
Q 1441 2238 1441 1747 
Q 1441 1256 1702 982 
Q 1963 709 2431 709 
Q 2694 709 2930 787 
Q 3166 866 3366 1019 
L 3366 103 
Q 3103 6 2833 -42 
Q 2563 -91 2291 -91 
Q 1344 -91 809 395 
Q 275 881 275 1747 
Q 275 2613 809 3098 
Q 1344 3584 2291 3584 
Q 2566 3584 2833 3536 
Q 3100 3488 3366 3391 
z
" transform="scale(0.015625)"/>
      <path id="DejaVuSans-Bold-57" d="M 1759 4494 
L 1759 3500 
L 2913 3500 
L 2913 2700 
L 1759 2700 
L 1759 1216 
Q 1759 972 1856 886 
Q 1953 800 2241 800 
L 2816 800 
L 2816 0 
L 1856 0 
Q 1194 0 917 276 
Q 641 553 641 1216 
L 641 2700 
L 84 2700 
L 84 3500 
L 641 3500 
L 641 4494 
L 1759 4494 
z
" transform="scale(0.015625)"/>
     </defs>
     <use xlink:href="#DejaVuSans-Bold-2f"/>
     <use xlink:href="#DejaVuSans-Bold-52" transform="translate(63.71875 0)"/>
     <use xlink:href="#DejaVuSans-Bold-46" transform="translate(132.421875 0)"/>
     <use xlink:href="#DejaVuSans-Bold-44" transform="translate(191.703125 0)"/>
     <use xlink:href="#DejaVuSans-Bold-57" transform="translate(259.1875 0)"/>
     <use xlink:href="#DejaVuSans-Bold-48" transform="translate(306.984375 0)"/>
    </g>
   </g>
   <g id="text_7">
    <!-- Bellanduru -->
    <g style="fill: #e6eef5" transform="translate(39.028037 162.83124) scale(0.058 -0.058)">
     <defs>
      <path id="DejaVuSans-Bold-25" d="M 2456 2859 
Q 2741 2859 2887 2984 
Q 3034 3109 3034 3353 
Q 3034 3594 2887 3720 
Q 2741 3847 2456 3847 
L 1791 3847 
L 1791 2859 
L 2456 2859 
z
M 2497 819 
Q 2859 819 3042 972 
Q 3225 1125 3225 1434 
Q 3225 1738 3044 1889 
Q 2863 2041 2497 2041 
L 1791 2041 
L 1791 819 
L 2497 819 
z
M 3616 2497 
Q 4003 2384 4215 2081 
Q 4428 1778 4428 1338 
Q 4428 663 3972 331 
Q 3516 0 2584 0 
L 588 0 
L 588 4666 
L 2394 4666 
Q 3366 4666 3802 4372 
Q 4238 4078 4238 3431 
Q 4238 3091 4078 2852 
Q 3919 2613 3616 2497 
z
" transform="scale(0.015625)"/>
      <path id="DejaVuSans-Bold-4f" d="M 538 4863 
L 1656 4863 
L 1656 0 
L 538 0 
L 538 4863 
z
" transform="scale(0.015625)"/>
      <path id="DejaVuSans-Bold-51" d="M 4056 2131 
L 4056 0 
L 2931 0 
L 2931 347 
L 2931 1631 
Q 2931 2084 2911 2256 
Q 2891 2428 2841 2509 
Q 2775 2619 2662 2680 
Q 2550 2741 2406 2741 
Q 2056 2741 1856 2470 
Q 1656 2200 1656 1722 
L 1656 0 
L 538 0 
L 538 3500 
L 1656 3500 
L 1656 2988 
Q 1909 3294 2193 3439 
Q 2478 3584 2822 3584 
Q 3428 3584 3742 3212 
Q 4056 2841 4056 2131 
z
" transform="scale(0.015625)"/>
      <path id="DejaVuSans-Bold-47" d="M 2919 2988 
L 2919 4863 
L 4044 4863 
L 4044 0 
L 2919 0 
L 2919 506 
Q 2688 197 2409 53 
Q 2131 -91 1766 -91 
Q 1119 -91 703 423 
Q 288 938 288 1747 
Q 288 2556 703 3070 
Q 1119 3584 1766 3584 
Q 2128 3584 2408 3439 
Q 2688 3294 2919 2988 
z
M 2181 722 
Q 2541 722 2730 984 
Q 2919 1247 2919 1747 
Q 2919 2247 2730 2509 
Q 2541 2772 2181 2772 
Q 1825 2772 1636 2509 
Q 1447 2247 1447 1747 
Q 1447 1247 1636 984 
Q 1825 722 2181 722 
z
" transform="scale(0.015625)"/>
     </defs>
     <use xlink:href="#DejaVuSans-Bold-25"/>
     <use xlink:href="#DejaVuSans-Bold-48" transform="translate(76.21875 0)"/>
     <use xlink:href="#DejaVuSans-Bold-4f" transform="translate(144.046875 0)"/>
     <use xlink:href="#DejaVuSans-Bold-4f" transform="translate(178.328125 0)"/>
     <use xlink:href="#DejaVuSans-Bold-44" transform="translate(212.609375 0)"/>
     <use xlink:href="#DejaVuSans-Bold-51" transform="translate(280.09375 0)"/>
     <use xlink:href="#DejaVuSans-Bold-47" transform="translate(351.28125 0)"/>
     <use xlink:href="#DejaVuSans-Bold-58" transform="translate(422.859375 0)"/>
     <use xlink:href="#DejaVuSans-Bold-55" transform="translate(494.046875 0)"/>
     <use xlink:href="#DejaVuSans-Bold-58" transform="translate(543.359375 0)"/>
    </g>
   </g>
   <g id="text_8">
    <!-- Mahadevapura zone -->
    <g style="fill: #64748b" transform="translate(39.028037 178.032107) scale(0.036 -0.036)">
     <defs>
      <path id="DejaVuSans-30" d="M 628 4666 
L 1569 4666 
L 2759 1491 
L 3956 4666 
L 4897 4666 
L 4897 0 
L 4281 0 
L 4281 4097 
L 3078 897 
L 2444 897 
L 1241 4097 
L 1241 0 
L 628 0 
L 628 4666 
z
" transform="scale(0.015625)"/>
      <path id="DejaVuSans-4b" d="M 3513 2113 
L 3513 0 
L 2938 0 
L 2938 2094 
Q 2938 2591 2744 2837 
Q 2550 3084 2163 3084 
Q 1697 3084 1428 2787 
Q 1159 2491 1159 1978 
L 1159 0 
L 581 0 
L 581 4863 
L 1159 4863 
L 1159 2956 
Q 1366 3272 1645 3428 
Q 1925 3584 2291 3584 
Q 2894 3584 3203 3211 
Q 3513 2838 3513 2113 
z
" transform="scale(0.015625)"/>
      <path id="DejaVuSans-59" d="M 191 3500 
L 800 3500 
L 1894 563 
L 2988 3500 
L 3597 3500 
L 2284 0 
L 1503 0 
L 191 3500 
z
" transform="scale(0.015625)"/>
      <path id="DejaVuSans-53" d="M 1159 525 
L 1159 -1331 
L 581 -1331 
L 581 3500 
L 1159 3500 
L 1159 2969 
Q 1341 3281 1617 3432 
Q 1894 3584 2278 3584 
Q 2916 3584 3314 3078 
Q 3713 2572 3713 1747 
Q 3713 922 3314 415 
Q 2916 -91 2278 -91 
Q 1894 -91 1617 61 
Q 1341 213 1159 525 
z
M 3116 1747 
Q 3116 2381 2855 2742 
Q 2594 3103 2138 3103 
Q 1681 3103 1420 2742 
Q 1159 2381 1159 1747 
Q 1159 1113 1420 752 
Q 1681 391 2138 391 
Q 2594 391 2855 752 
Q 3116 1113 3116 1747 
z
" transform="scale(0.015625)"/>
     </defs>
     <use xlink:href="#DejaVuSans-30"/>
     <use xlink:href="#DejaVuSans-44" transform="translate(86.28125 0)"/>
     <use xlink:href="#DejaVuSans-4b" transform="translate(147.5625 0)"/>
     <use xlink:href="#DejaVuSans-44" transform="translate(210.9375 0)"/>
     <use xlink:href="#DejaVuSans-47" transform="translate(272.21875 0)"/>
     <use xlink:href="#DejaVuSans-48" transform="translate(335.703125 0)"/>
     <use xlink:href="#DejaVuSans-59" transform="translate(397.234375 0)"/>
     <use xlink:href="#DejaVuSans-44" transform="translate(456.421875 0)"/>
     <use xlink:href="#DejaVuSans-53" transform="translate(517.703125 0)"/>
     <use xlink:href="#DejaVuSans-58" transform="translate(581.1875 0)"/>
     <use xlink:href="#DejaVuSans-55" transform="translate(644.5625 0)"/>
     <use xlink:href="#DejaVuSans-44" transform="translate(685.671875 0)"/>
     <use xlink:href="#DejaVuSans-3" transform="translate(746.953125 0)"/>
     <use xlink:href="#DejaVuSans-5d" transform="translate(778.734375 0)"/>
     <use xlink:href="#DejaVuSans-52" transform="translate(831.21875 0)"/>
     <use xlink:href="#DejaVuSans-51" transform="translate(892.40625 0)"/>
     <use xlink:href="#DejaVuSans-48" transform="translate(955.78125 0)"/>
    </g>
   </g>
   <g id="text_9">
    <!-- 82% -->
    <g style="fill: #ef4444" transform="translate(229.823213 164.774014) scale(0.08 -0.08)">
     <defs>
      <path id="DejaVuSans-Bold-1b" d="M 2228 2088 
Q 1891 2088 1709 1903 
Q 1528 1719 1528 1375 
Q 1528 1031 1709 848 
Q 1891 666 2228 666 
Q 2563 666 2741 848 
Q 2919 1031 2919 1375 
Q 2919 1722 2741 1905 
Q 2563 2088 2228 2088 
z
M 1350 2484 
Q 925 2613 709 2878 
Q 494 3144 494 3541 
Q 494 4131 934 4440 
Q 1375 4750 2228 4750 
Q 3075 4750 3515 4442 
Q 3956 4134 3956 3541 
Q 3956 3144 3739 2878 
Q 3522 2613 3097 2484 
Q 3572 2353 3814 2058 
Q 4056 1763 4056 1313 
Q 4056 619 3595 264 
Q 3134 -91 2228 -91 
Q 1319 -91 855 264 
Q 391 619 391 1313 
Q 391 1763 633 2058 
Q 875 2353 1350 2484 
z
M 1631 3419 
Q 1631 3141 1786 2991 
Q 1941 2841 2228 2841 
Q 2509 2841 2662 2991 
Q 2816 3141 2816 3419 
Q 2816 3697 2662 3845 
Q 2509 3994 2228 3994 
Q 1941 3994 1786 3844 
Q 1631 3694 1631 3419 
z
" transform="scale(0.015625)"/>
      <path id="DejaVuSans-Bold-15" d="M 1844 884 
L 3897 884 
L 3897 0 
L 506 0 
L 506 884 
L 2209 2388 
Q 2438 2594 2547 2791 
Q 2656 2988 2656 3200 
Q 2656 3528 2436 3728 
Q 2216 3928 1850 3928 
Q 1569 3928 1234 3808 
Q 900 3688 519 3450 
L 519 4475 
Q 925 4609 1322 4679 
Q 1719 4750 2100 4750 
Q 2938 4750 3402 4381 
Q 3866 4013 3866 3353 
Q 3866 2972 3669 2642 
Q 3472 2313 2841 1759 
L 1844 884 
z
" transform="scale(0.015625)"/>
      <path id="DejaVuSans-Bold-8" d="M 4959 1925 
Q 4738 1925 4616 1733 
Q 4494 1541 4494 1184 
Q 4494 825 4614 633 
Q 4734 441 4959 441 
Q 5184 441 5303 633 
Q 5422 825 5422 1184 
Q 5422 1541 5301 1733 
Q 5181 1925 4959 1925 
z
M 4959 2450 
Q 5541 2450 5875 2112 
Q 6209 1775 6209 1184 
Q 6209 594 5875 251 
Q 5541 -91 4959 -91 
Q 4378 -91 4042 251 
Q 3706 594 3706 1184 
Q 3706 1772 4042 2111 
Q 4378 2450 4959 2450 
z
M 2094 -91 
L 1403 -91 
L 4319 4750 
L 5013 4750 
L 2094 -91 
z
M 1453 4750 
Q 2034 4750 2367 4411 
Q 2700 4072 2700 3481 
Q 2700 2891 2367 2550 
Q 2034 2209 1453 2209 
Q 872 2209 539 2550 
Q 206 2891 206 3481 
Q 206 4072 539 4411 
Q 872 4750 1453 4750 
z
M 1453 4225 
Q 1228 4225 1106 4031 
Q 984 3838 984 3481 
Q 984 3122 1106 2926 
Q 1228 2731 1453 2731 
Q 1678 2731 1798 2926 
Q 1919 3122 1919 3481 
Q 1919 3838 1797 4031 
Q 1675 4225 1453 4225 
z
" transform="scale(0.015625)"/>
     </defs>
     <use xlink:href="#DejaVuSans-Bold-1b"/>
     <use xlink:href="#DejaVuSans-Bold-15" transform="translate(69.578125 0)"/>
     <use xlink:href="#DejaVuSans-Bold-8" transform="translate(139.15625 0)"/>
    </g>
   </g>
   <g id="text_10">
    <!-- HIGH RISK -->
    <g style="fill: #ef4444" transform="translate(230.246463 180.671093) scale(0.032 -0.032)">
     <defs>
      <path id="DejaVuSans-Bold-2b" d="M 588 4666 
L 1791 4666 
L 1791 2888 
L 3566 2888 
L 3566 4666 
L 4769 4666 
L 4769 0 
L 3566 0 
L 3566 1978 
L 1791 1978 
L 1791 0 
L 588 0 
L 588 4666 
z
" transform="scale(0.015625)"/>
      <path id="DejaVuSans-Bold-2c" d="M 588 4666 
L 1791 4666 
L 1791 0 
L 588 0 
L 588 4666 
z
" transform="scale(0.015625)"/>
      <path id="DejaVuSans-Bold-2a" d="M 4781 347 
Q 4331 128 3847 18 
Q 3363 -91 2847 -91 
Q 1681 -91 1000 561 
Q 319 1213 319 2328 
Q 319 3456 1012 4103 
Q 1706 4750 2913 4750 
Q 3378 4750 3804 4662 
Q 4231 4575 4609 4403 
L 4609 3438 
Q 4219 3659 3833 3768 
Q 3447 3878 3059 3878 
Q 2341 3878 1952 3476 
Q 1563 3075 1563 2328 
Q 1563 1588 1938 1184 
Q 2313 781 3003 781 
Q 3191 781 3352 804 
Q 3513 828 3641 878 
L 3641 1784 
L 2906 1784 
L 2906 2591 
L 4781 2591 
L 4781 347 
z
" transform="scale(0.015625)"/>
      <path id="DejaVuSans-Bold-36" d="M 3834 4519 
L 3834 3531 
Q 3450 3703 3084 3790 
Q 2719 3878 2394 3878 
Q 1963 3878 1756 3759 
Q 1550 3641 1550 3391 
Q 1550 3203 1689 3098 
Q 1828 2994 2194 2919 
L 2706 2816 
Q 3484 2659 3812 2340 
Q 4141 2022 4141 1434 
Q 4141 663 3683 286 
Q 3225 -91 2284 -91 
Q 1841 -91 1394 -6 
Q 947 78 500 244 
L 500 1259 
Q 947 1022 1364 901 
Q 1781 781 2169 781 
Q 2563 781 2772 912 
Q 2981 1044 2981 1288 
Q 2981 1506 2839 1625 
Q 2697 1744 2272 1838 
L 1806 1941 
Q 1106 2091 782 2419 
Q 459 2747 459 3303 
Q 459 4000 909 4375 
Q 1359 4750 2203 4750 
Q 2588 4750 2994 4692 
Q 3400 4634 3834 4519 
z
" transform="scale(0.015625)"/>
      <path id="DejaVuSans-Bold-2e" d="M 588 4666 
L 1791 4666 
L 1791 2963 
L 3525 4666 
L 4922 4666 
L 2675 2456 
L 5153 0 
L 3647 0 
L 1791 1838 
L 1791 0 
L 588 0 
L 588 4666 
z
" transform="scale(0.015625)"/>
     </defs>
     <use xlink:href="#DejaVuSans-Bold-2b"/>
     <use xlink:href="#DejaVuSans-Bold-2c" transform="translate(83.6875 0)"/>
     <use xlink:href="#DejaVuSans-Bold-2a" transform="translate(120.890625 0)"/>
     <use xlink:href="#DejaVuSans-Bold-2b" transform="translate(202.96875 0)"/>
     <use xlink:href="#DejaVuSans-Bold-3" transform="translate(286.65625 0)"/>
     <use xlink:href="#DejaVuSans-Bold-35" transform="translate(321.46875 0)"/>
     <use xlink:href="#DejaVuSans-Bold-2c" transform="translate(398.46875 0)"/>
     <use xlink:href="#DejaVuSans-Bold-36" transform="translate(435.671875 0)"/>
     <use xlink:href="#DejaVuSans-Bold-2e" transform="translate(507.6875 0)"/>
    </g>
   </g>
   <g id="text_11">
    <!-- Ask about your area -->
    <g style="fill: #e6eef5" transform="translate(39.028037 279.254241) scale(0.052 -0.052)">
     <defs>
      <path id="DejaVuSans-Bold-56" d="M 3272 3391 
L 3272 2541 
Q 2913 2691 2578 2766 
Q 2244 2841 1947 2841 
Q 1628 2841 1473 2761 
Q 1319 2681 1319 2516 
Q 1319 2381 1436 2309 
Q 1553 2238 1856 2203 
L 2053 2175 
Q 2913 2066 3209 1816 
Q 3506 1566 3506 1031 
Q 3506 472 3093 190 
Q 2681 -91 1863 -91 
Q 1516 -91 1145 -36 
Q 775 19 384 128 
L 384 978 
Q 719 816 1070 734 
Q 1422 653 1784 653 
Q 2113 653 2278 743 
Q 2444 834 2444 1013 
Q 2444 1163 2330 1236 
Q 2216 1309 1875 1350 
L 1678 1375 
Q 931 1469 631 1722 
Q 331 1975 331 2491 
Q 331 3047 712 3315 
Q 1094 3584 1881 3584 
Q 2191 3584 2531 3537 
Q 2872 3491 3272 3391 
z
" transform="scale(0.015625)"/>
      <path id="DejaVuSans-Bold-4e" d="M 538 4863 
L 1656 4863 
L 1656 2216 
L 2944 3500 
L 4244 3500 
L 2534 1894 
L 4378 0 
L 3022 0 
L 1656 1459 
L 1656 0 
L 538 0 
L 538 4863 
z
" transform="scale(0.015625)"/>
      <path id="DejaVuSans-Bold-45" d="M 2400 722 
Q 2759 722 2948 984 
Q 3138 1247 3138 1747 
Q 3138 2247 2948 2509 
Q 2759 2772 2400 2772 
Q 2041 2772 1848 2508 
Q 1656 2244 1656 1747 
Q 1656 1250 1848 986 
Q 2041 722 2400 722 
z
M 1656 2988 
Q 1888 3294 2169 3439 
Q 2450 3584 2816 3584 
Q 3463 3584 3878 3070 
Q 4294 2556 4294 1747 
Q 4294 938 3878 423 
Q 3463 -91 2816 -91 
Q 2450 -91 2169 54 
Q 1888 200 1656 506 
L 1656 0 
L 538 0 
L 538 4863 
L 1656 4863 
L 1656 2988 
z
" transform="scale(0.015625)"/>
      <path id="DejaVuSans-Bold-5c" d="M 78 3500 
L 1197 3500 
L 2138 1125 
L 2938 3500 
L 4056 3500 
L 2584 -331 
Q 2363 -916 2067 -1148 
Q 1772 -1381 1288 -1381 
L 641 -1381 
L 641 -647 
L 991 -647 
Q 1275 -647 1404 -556 
Q 1534 -466 1606 -231 
L 1638 -134 
L 78 3500 
z
" transform="scale(0.015625)"/>
     </defs>
     <use xlink:href="#DejaVuSans-Bold-24"/>
     <use xlink:href="#DejaVuSans-Bold-56" transform="translate(77.390625 0)"/>
     <use xlink:href="#DejaVuSans-Bold-4e" transform="translate(136.90625 0)"/>
     <use xlink:href="#DejaVuSans-Bold-3" transform="translate(203.40625 0)"/>
     <use xlink:href="#DejaVuSans-Bold-44" transform="translate(238.21875 0)"/>
     <use xlink:href="#DejaVuSans-Bold-45" transform="translate(305.703125 0)"/>
     <use xlink:href="#DejaVuSans-Bold-52" transform="translate(377.28125 0)"/>
     <use xlink:href="#DejaVuSans-Bold-58" transform="translate(445.984375 0)"/>
     <use xlink:href="#DejaVuSans-Bold-57" transform="translate(517.171875 0)"/>
     <use xlink:href="#DejaVuSans-Bold-3" transform="translate(564.96875 0)"/>
     <use xlink:href="#DejaVuSans-Bold-5c" transform="translate(599.78125 0)"/>
     <use xlink:href="#DejaVuSans-Bold-52" transform="translate(664.96875 0)"/>
     <use xlink:href="#DejaVuSans-Bold-58" transform="translate(733.671875 0)"/>
     <use xlink:href="#DejaVuSans-Bold-55" transform="translate(804.859375 0)"/>
     <use xlink:href="#DejaVuSans-Bold-3" transform="translate(854.171875 0)"/>
     <use xlink:href="#DejaVuSans-Bold-44" transform="translate(888.984375 0)"/>
     <use xlink:href="#DejaVuSans-Bold-55" transform="translate(956.46875 0)"/>
     <use xlink:href="#DejaVuSans-Bold-48" transform="translate(1005.78125 0)"/>
     <use xlink:href="#DejaVuSans-Bold-44" transform="translate(1073.609375 0)"/>
    </g>
   </g>
   <g id="text_12">
    <!-- Will my area flood? -->
    <g style="fill: #64748b" transform="translate(82.587129 296.881242) scale(0.031 -0.031)">
     <defs>
      <path id="DejaVuSans-3a" d="M 213 4666 
L 850 4666 
L 1831 722 
L 2809 4666 
L 3519 4666 
L 4500 722 
L 5478 4666 
L 6119 4666 
L 4947 0 
L 4153 0 
L 3169 4050 
L 2175 0 
L 1381 0 
L 213 4666 
z
" transform="scale(0.015625)"/>
      <path id="DejaVuSans-13b0" d="M 1831 4863 
L 3431 4863 
L 3431 0 
L 2853 0 
L 2853 4384 
L 1825 4384 
Q 1516 4384 1395 4259 
Q 1275 4134 1275 3809 
L 1275 3500 
L 2222 3500 
L 2222 3053 
L 1275 3053 
L 1275 0 
L 697 0 
L 697 3053 
L 147 3053 
L 147 3500 
L 697 3500 
L 697 3744 
Q 697 4328 969 4595 
Q 1241 4863 1831 4863 
z
" transform="scale(0.015625)"/>
      <path id="DejaVuSans-22" d="M 1222 794 
L 1856 794 
L 1856 0 
L 1222 0 
L 1222 794 
z
M 1838 1253 
L 1241 1253 
L 1241 1734 
Q 1241 2050 1328 2253 
Q 1416 2456 1697 2725 
L 1978 3003 
Q 2156 3169 2236 3316 
Q 2316 3463 2316 3616 
Q 2316 3894 2111 4066 
Q 1906 4238 1569 4238 
Q 1322 4238 1042 4128 
Q 763 4019 459 3809 
L 459 4397 
Q 753 4575 1054 4662 
Q 1356 4750 1678 4750 
Q 2253 4750 2601 4447 
Q 2950 4144 2950 3647 
Q 2950 3409 2837 3195 
Q 2725 2981 2444 2713 
L 2169 2444 
Q 2022 2297 1961 2214 
Q 1900 2131 1875 2053 
Q 1856 1988 1847 1894 
Q 1838 1800 1838 1638 
L 1838 1253 
z
" transform="scale(0.015625)"/>
     </defs>
     <use xlink:href="#DejaVuSans-3a"/>
     <use xlink:href="#DejaVuSans-4c" transform="translate(96.671875 0)"/>
     <use xlink:href="#DejaVuSans-4f" transform="translate(124.453125 0)"/>
     <use xlink:href="#DejaVuSans-4f" transform="translate(152.234375 0)"/>
     <use xlink:href="#DejaVuSans-3" transform="translate(180.015625 0)"/>
     <use xlink:href="#DejaVuSans-50" transform="translate(211.796875 0)"/>
     <use xlink:href="#DejaVuSans-5c" transform="translate(309.203125 0)"/>
     <use xlink:href="#DejaVuSans-3" transform="translate(368.390625 0)"/>
     <use xlink:href="#DejaVuSans-44" transform="translate(400.171875 0)"/>
     <use xlink:href="#DejaVuSans-55" transform="translate(461.453125 0)"/>
     <use xlink:href="#DejaVuSans-48" transform="translate(500.359375 0)"/>
     <use xlink:href="#DejaVuSans-44" transform="translate(561.890625 0)"/>
     <use xlink:href="#DejaVuSans-3" transform="translate(623.171875 0)"/>
     <use xlink:href="#DejaVuSans-13b0" transform="translate(654.953125 0)"/>
     <use xlink:href="#DejaVuSans-52" transform="translate(717.9375 0)"/>
     <use xlink:href="#DejaVuSans-52" transform="translate(779.125 0)"/>
     <use xlink:href="#DejaVuSans-47" transform="translate(840.3125 0)"/>
     <use xlink:href="#DejaVuSans-22" transform="translate(903.796875 0)"/>
    </g>
   </g>
   <g id="text_13">
    <!-- Safe to drive? -->
    <g style="fill: #64748b" transform="translate(198.231214 296.881242) scale(0.031 -0.031)">
     <defs>
      <path id="DejaVuSans-49" d="M 2375 4863 
L 2375 4384 
L 1825 4384 
Q 1516 4384 1395 4259 
Q 1275 4134 1275 3809 
L 1275 3500 
L 2222 3500 
L 2222 3053 
L 1275 3053 
L 1275 0 
L 697 0 
L 697 3053 
L 147 3053 
L 147 3500 
L 697 3500 
L 697 3744 
Q 697 4328 969 4595 
Q 1241 4863 1831 4863 
L 2375 4863 
z
" transform="scale(0.015625)"/>
     </defs>
     <use xlink:href="#DejaVuSans-36"/>
     <use xlink:href="#DejaVuSans-44" transform="translate(63.484375 0)"/>
     <use xlink:href="#DejaVuSans-49" transform="translate(124.765625 0)"/>
     <use xlink:href="#DejaVuSans-48" transform="translate(159.96875 0)"/>
     <use xlink:href="#DejaVuSans-3" transform="translate(221.5 0)"/>
     <use xlink:href="#DejaVuSans-57" transform="translate(253.28125 0)"/>
     <use xlink:href="#DejaVuSans-52" transform="translate(292.484375 0)"/>
     <use xlink:href="#DejaVuSans-3" transform="translate(353.671875 0)"/>
     <use xlink:href="#DejaVuSans-47" transform="translate(385.453125 0)"/>
     <use xlink:href="#DejaVuSans-55" transform="translate(448.9375 0)"/>
     <use xlink:href="#DejaVuSans-4c" transform="translate(490.046875 0)"/>
     <use xlink:href="#DejaVuSans-59" transform="translate(517.828125 0)"/>
     <use xlink:href="#DejaVuSans-48" transform="translate(577.015625 0)"/>
     <use xlink:href="#DejaVuSans-22" transform="translate(638.546875 0)"/>
    </g>
   </g>
   <g id="text_14">
    <!-- Your ward is high risk right now. -->
    <g style="fill: #e6eef5" transform="translate(45.588785 324.732388) scale(0.034 -0.034)">
     <defs>
      <path id="DejaVuSans-3c" d="M -13 4666 
L 666 4666 
L 1959 2747 
L 3244 4666 
L 3922 4666 
L 2272 2222 
L 2272 0 
L 1638 0 
L 1638 2222 
L -13 4666 
z
" transform="scale(0.015625)"/>
      <path id="DejaVuSans-56" d="M 2834 3397 
L 2834 2853 
Q 2591 2978 2328 3040 
Q 2066 3103 1784 3103 
Q 1356 3103 1142 2972 
Q 928 2841 928 2578 
Q 928 2378 1081 2264 
Q 1234 2150 1697 2047 
L 1894 2003 
Q 2506 1872 2764 1633 
Q 3022 1394 3022 966 
Q 3022 478 2636 193 
Q 2250 -91 1575 -91 
Q 1294 -91 989 -36 
Q 684 19 347 128 
L 347 722 
Q 666 556 975 473 
Q 1284 391 1588 391 
Q 1994 391 2212 530 
Q 2431 669 2431 922 
Q 2431 1156 2273 1281 
Q 2116 1406 1581 1522 
L 1381 1569 
Q 847 1681 609 1914 
Q 372 2147 372 2553 
Q 372 3047 722 3315 
Q 1072 3584 1716 3584 
Q 2034 3584 2315 3537 
Q 2597 3491 2834 3397 
z
" transform="scale(0.015625)"/>
      <path id="DejaVuSans-4a" d="M 2906 1791 
Q 2906 2416 2648 2759 
Q 2391 3103 1925 3103 
Q 1463 3103 1205 2759 
Q 947 2416 947 1791 
Q 947 1169 1205 825 
Q 1463 481 1925 481 
Q 2391 481 2648 825 
Q 2906 1169 2906 1791 
z
M 3481 434 
Q 3481 -459 3084 -895 
Q 2688 -1331 1869 -1331 
Q 1566 -1331 1297 -1286 
Q 1028 -1241 775 -1147 
L 775 -588 
Q 1028 -725 1275 -790 
Q 1522 -856 1778 -856 
Q 2344 -856 2625 -561 
Q 2906 -266 2906 331 
L 2906 616 
Q 2728 306 2450 153 
Q 2172 0 1784 0 
Q 1141 0 747 490 
Q 353 981 353 1791 
Q 353 2603 747 3093 
Q 1141 3584 1784 3584 
Q 2172 3584 2450 3431 
Q 2728 3278 2906 2969 
L 2906 3500 
L 3481 3500 
L 3481 434 
z
" transform="scale(0.015625)"/>
      <path id="DejaVuSans-4e" d="M 581 4863 
L 1159 4863 
L 1159 1991 
L 2875 3500 
L 3609 3500 
L 1753 1863 
L 3688 0 
L 2938 0 
L 1159 1709 
L 1159 0 
L 581 0 
L 581 4863 
z
" transform="scale(0.015625)"/>
      <path id="DejaVuSans-11" d="M 684 794 
L 1344 794 
L 1344 0 
L 684 0 
L 684 794 
z
" transform="scale(0.015625)"/>
     </defs>
     <use xlink:href="#DejaVuSans-3c"/>
     <use xlink:href="#DejaVuSans-52" transform="translate(47.796875 0)"/>
     <use xlink:href="#DejaVuSans-58" transform="translate(108.984375 0)"/>
     <use xlink:href="#DejaVuSans-55" transform="translate(172.359375 0)"/>
     <use xlink:href="#DejaVuSans-3" transform="translate(213.46875 0)"/>
     <use xlink:href="#DejaVuSans-5a" transform="translate(245.25 0)"/>
     <use xlink:href="#DejaVuSans-44" transform="translate(327.03125 0)"/>
     <use xlink:href="#DejaVuSans-55" transform="translate(388.3125 0)"/>
     <use xlink:href="#DejaVuSans-47" transform="translate(427.671875 0)"/>
     <use xlink:href="#DejaVuSans-3" transform="translate(491.15625 0)"/>
     <use xlink:href="#DejaVuSans-4c" transform="translate(522.9375 0)"/>
     <use xlink:href="#DejaVuSans-56" transform="translate(550.71875 0)"/>
     <use xlink:href="#DejaVuSans-3" transform="translate(602.8125 0)"/>
     <use xlink:href="#DejaVuSans-4b" transform="translate(634.59375 0)"/>
     <use xlink:href="#DejaVuSans-4c" transform="translate(697.96875 0)"/>
     <use xlink:href="#DejaVuSans-4a" transform="translate(725.75 0)"/>
     <use xlink:href="#DejaVuSans-4b" transform="translate(789.234375 0)"/>
     <use xlink:href="#DejaVuSans-3" transform="translate(852.609375 0)"/>
     <use xlink:href="#DejaVuSans-55" transform="translate(884.390625 0)"/>
     <use xlink:href="#DejaVuSans-4c" transform="translate(925.5 0)"/>
     <use xlink:href="#DejaVuSans-56" transform="translate(953.28125 0)"/>
     <use xlink:href="#DejaVuSans-4e" transform="translate(1005.375 0)"/>
     <use xlink:href="#DejaVuSans-3" transform="translate(1063.28125 0)"/>
     <use xlink:href="#DejaVuSans-55" transform="translate(1095.0625 0)"/>
     <use xlink:href="#DejaVuSans-4c" transform="translate(1136.171875 0)"/>
     <use xlink:href="#DejaVuSans-4a" transform="translate(1163.953125 0)"/>
     <use xlink:href="#DejaVuSans-4b" transform="translate(1227.4375 0)"/>
     <use xlink:href="#DejaVuSans-57" transform="translate(1290.8125 0)"/>
     <use xlink:href="#DejaVuSans-3" transform="translate(1330.015625 0)"/>
     <use xlink:href="#DejaVuSans-51" transform="translate(1361.796875 0)"/>
     <use xlink:href="#DejaVuSans-52" transform="translate(1425.171875 0)"/>
     <use xlink:href="#DejaVuSans-5a" transform="translate(1486.359375 0)"/>
     <use xlink:href="#DejaVuSans-11" transform="translate(1558.96875 0)"/>
    </g>
   </g>
   <g id="text_15">
    <!-- Should I evacuate? -->
    <g style="fill: #04202b" transform="translate(164.607022 350.10544) scale(0.034 -0.034)">
     <defs>
      <path id="DejaVuSans-Bold-4b" d="M 4056 2131 
L 4056 0 
L 2931 0 
L 2931 347 
L 2931 1625 
Q 2931 2084 2911 2256 
Q 2891 2428 2841 2509 
Q 2775 2619 2662 2680 
Q 2550 2741 2406 2741 
Q 2056 2741 1856 2470 
Q 1656 2200 1656 1722 
L 1656 0 
L 538 0 
L 538 4863 
L 1656 4863 
L 1656 2988 
Q 1909 3294 2193 3439 
Q 2478 3584 2822 3584 
Q 3428 3584 3742 3212 
Q 4056 2841 4056 2131 
z
" transform="scale(0.015625)"/>
      <path id="DejaVuSans-Bold-59" d="M 97 3500 
L 1216 3500 
L 2088 1081 
L 2956 3500 
L 4078 3500 
L 2700 0 
L 1472 0 
L 97 3500 
z
" transform="scale(0.015625)"/>
      <path id="DejaVuSans-Bold-22" d="M 2216 1575 
L 1088 1575 
L 1088 1728 
Q 1088 1984 1191 2182 
Q 1294 2381 1625 2688 
L 1825 2869 
Q 2003 3031 2086 3175 
Q 2169 3319 2169 3463 
Q 2169 3681 2019 3804 
Q 1869 3928 1600 3928 
Q 1347 3928 1053 3823 
Q 759 3719 441 3513 
L 441 4494 
Q 819 4625 1131 4687 
Q 1444 4750 1734 4750 
Q 2497 4750 2897 4439 
Q 3297 4128 3297 3531 
Q 3297 3225 3175 2983 
Q 3053 2741 2759 2463 
L 2559 2284 
Q 2347 2091 2281 1973 
Q 2216 1856 2216 1716 
L 2216 1575 
z
M 1088 1113 
L 2216 1113 
L 2216 0 
L 1088 0 
L 1088 1113 
z
" transform="scale(0.015625)"/>
     </defs>
     <use xlink:href="#DejaVuSans-Bold-36"/>
     <use xlink:href="#DejaVuSans-Bold-4b" transform="translate(72.015625 0)"/>
     <use xlink:href="#DejaVuSans-Bold-52" transform="translate(143.203125 0)"/>
     <use xlink:href="#DejaVuSans-Bold-58" transform="translate(211.90625 0)"/>
     <use xlink:href="#DejaVuSans-Bold-4f" transform="translate(283.09375 0)"/>
     <use xlink:href="#DejaVuSans-Bold-47" transform="translate(317.375 0)"/>
     <use xlink:href="#DejaVuSans-Bold-3" transform="translate(388.953125 0)"/>
     <use xlink:href="#DejaVuSans-Bold-2c" transform="translate(423.765625 0)"/>
     <use xlink:href="#DejaVuSans-Bold-3" transform="translate(460.96875 0)"/>
     <use xlink:href="#DejaVuSans-Bold-48" transform="translate(495.78125 0)"/>
     <use xlink:href="#DejaVuSans-Bold-59" transform="translate(563.609375 0)"/>
     <use xlink:href="#DejaVuSans-Bold-44" transform="translate(628.796875 0)"/>
     <use xlink:href="#DejaVuSans-Bold-46" transform="translate(696.28125 0)"/>
     <use xlink:href="#DejaVuSans-Bold-58" transform="translate(755.5625 0)"/>
     <use xlink:href="#DejaVuSans-Bold-44" transform="translate(826.75 0)"/>
     <use xlink:href="#DejaVuSans-Bold-57" transform="translate(894.234375 0)"/>
     <use xlink:href="#DejaVuSans-Bold-48" transform="translate(942.03125 0)"/>
     <use xlink:href="#DejaVuSans-Bold-22" transform="translate(1009.859375 0)"/>
    </g>
   </g>
   <g id="text_16">
    <!-- Type your question… -->
    <g style="fill: #64748b" transform="translate(45.588785 382.336072) scale(0.034 -0.034)">
     <defs>
      <path id="DejaVuSans-37" d="M -19 4666 
L 3928 4666 
L 3928 4134 
L 2272 4134 
L 2272 0 
L 1638 0 
L 1638 4134 
L -19 4134 
L -19 4666 
z
" transform="scale(0.015625)"/>
      <path id="DejaVuSans-54" d="M 947 1747 
Q 947 1113 1208 752 
Q 1469 391 1925 391 
Q 2381 391 2643 752 
Q 2906 1113 2906 1747 
Q 2906 2381 2643 2742 
Q 2381 3103 1925 3103 
Q 1469 3103 1208 2742 
Q 947 2381 947 1747 
z
M 2906 525 
Q 2725 213 2448 61 
Q 2172 -91 1784 -91 
Q 1150 -91 751 415 
Q 353 922 353 1747 
Q 353 2572 751 3078 
Q 1150 3584 1784 3584 
Q 2172 3584 2448 3432 
Q 2725 3281 2906 2969 
L 2906 3500 
L 3481 3500 
L 3481 -1331 
L 2906 -1331 
L 2906 525 
z
" transform="scale(0.015625)"/>
     </defs>
     <use xlink:href="#DejaVuSans-37"/>
     <use xlink:href="#DejaVuSans-5c" transform="translate(45.5 0)"/>
     <use xlink:href="#DejaVuSans-53" transform="translate(104.6875 0)"/>
     <use xlink:href="#DejaVuSans-48" transform="translate(168.171875 0)"/>
     <use xlink:href="#DejaVuSans-3" transform="translate(229.703125 0)"/>
     <use xlink:href="#DejaVuSans-5c" transform="translate(261.484375 0)"/>
     <use xlink:href="#DejaVuSans-52" transform="translate(320.671875 0)"/>
     <use xlink:href="#DejaVuSans-58" transform="translate(381.859375 0)"/>
     <use xlink:href="#DejaVuSans-55" transform="translate(445.234375 0)"/>
     <use xlink:href="#DejaVuSans-3" transform="translate(486.34375 0)"/>
     <use xlink:href="#DejaVuSans-54" transform="translate(518.125 0)"/>
     <use xlink:href="#DejaVuSans-58" transform="translate(581.609375 0)"/>
     <use xlink:href="#DejaVuSans-48" transform="translate(644.984375 0)"/>
     <use xlink:href="#DejaVuSans-56" transform="translate(706.515625 0)"/>
     <use xlink:href="#DejaVuSans-57" transform="translate(758.609375 0)"/>
     <use xlink:href="#DejaVuSans-4c" transform="translate(797.8125 0)"/>
     <use xlink:href="#DejaVuSans-52" transform="translate(825.59375 0)"/>
     <use xlink:href="#DejaVuSans-51" transform="translate(886.78125 0)"/>
     <use xlink:href="#DejaVuSans-b08" transform="translate(950.15625 0)"/>
    </g>
   </g>
   <g id="text_17">
    <!-- Ask -->
    <g style="fill: #04202b" transform="translate(222.479248 382.388033) scale(0.036 -0.036)">
     <use xlink:href="#DejaVuSans-Bold-24"/>
     <use xlink:href="#DejaVuSans-Bold-56" transform="translate(77.390625 0)"/>
     <use xlink:href="#DejaVuSans-Bold-4e" transform="translate(136.90625 0)"/>
    </g>
   </g>
   <g id="text_18">
    <!-- Report waterlogging -->
    <g style="fill: #e6eef5" transform="translate(39.028037 425.320726) scale(0.052 -0.052)">
     <defs>
      <path id="DejaVuSans-Bold-53" d="M 1656 506 
L 1656 -1331 
L 538 -1331 
L 538 3500 
L 1656 3500 
L 1656 2988 
Q 1888 3294 2169 3439 
Q 2450 3584 2816 3584 
Q 3463 3584 3878 3070 
Q 4294 2556 4294 1747 
Q 4294 938 3878 423 
Q 3463 -91 2816 -91 
Q 2450 -91 2169 54 
Q 1888 200 1656 506 
z
M 2400 2772 
Q 2041 2772 1848 2508 
Q 1656 2244 1656 1747 
Q 1656 1250 1848 986 
Q 2041 722 2400 722 
Q 2759 722 2948 984 
Q 3138 1247 3138 1747 
Q 3138 2247 2948 2509 
Q 2759 2772 2400 2772 
z
" transform="scale(0.015625)"/>
      <path id="DejaVuSans-Bold-5a" d="M 225 3500 
L 1313 3500 
L 1900 1088 
L 2491 3500 
L 3425 3500 
L 4013 1113 
L 4603 3500 
L 5691 3500 
L 4769 0 
L 3547 0 
L 2956 2406 
L 2369 0 
L 1147 0 
L 225 3500 
z
" transform="scale(0.015625)"/>
      <path id="DejaVuSans-Bold-4a" d="M 2919 594 
Q 2688 288 2409 144 
Q 2131 0 1766 0 
Q 1125 0 706 504 
Q 288 1009 288 1791 
Q 288 2575 706 3076 
Q 1125 3578 1766 3578 
Q 2131 3578 2409 3434 
Q 2688 3291 2919 2981 
L 2919 3500 
L 4044 3500 
L 4044 353 
Q 4044 -491 3511 -936 
Q 2978 -1381 1966 -1381 
Q 1638 -1381 1331 -1331 
Q 1025 -1281 716 -1178 
L 716 -306 
Q 1009 -475 1290 -558 
Q 1572 -641 1856 -641 
Q 2406 -641 2662 -400 
Q 2919 -159 2919 353 
L 2919 594 
z
M 2181 2772 
Q 1834 2772 1640 2515 
Q 1447 2259 1447 1791 
Q 1447 1309 1634 1061 
Q 1822 813 2181 813 
Q 2531 813 2725 1069 
Q 2919 1325 2919 1791 
Q 2919 2259 2725 2515 
Q 2531 2772 2181 2772 
z
" transform="scale(0.015625)"/>
      <path id="DejaVuSans-Bold-4c" d="M 538 3500 
L 1656 3500 
L 1656 0 
L 538 0 
L 538 3500 
z
M 538 4863 
L 1656 4863 
L 1656 3950 
L 538 3950 
L 538 4863 
z
" transform="scale(0.015625)"/>
     </defs>
     <use xlink:href="#DejaVuSans-Bold-35"/>
     <use xlink:href="#DejaVuSans-Bold-48" transform="translate(77 0)"/>
     <use xlink:href="#DejaVuSans-Bold-53" transform="translate(144.828125 0)"/>
     <use xlink:href="#DejaVuSans-Bold-52" transform="translate(216.40625 0)"/>
     <use xlink:href="#DejaVuSans-Bold-55" transform="translate(285.109375 0)"/>
     <use xlink:href="#DejaVuSans-Bold-57" transform="translate(334.421875 0)"/>
     <use xlink:href="#DejaVuSans-Bold-3" transform="translate(382.21875 0)"/>
     <use xlink:href="#DejaVuSans-Bold-5a" transform="translate(417.03125 0)"/>
     <use xlink:href="#DejaVuSans-Bold-44" transform="translate(509.421875 0)"/>
     <use xlink:href="#DejaVuSans-Bold-57" transform="translate(576.90625 0)"/>
     <use xlink:href="#DejaVuSans-Bold-48" transform="translate(624.703125 0)"/>
     <use xlink:href="#DejaVuSans-Bold-55" transform="translate(692.53125 0)"/>
     <use xlink:href="#DejaVuSans-Bold-4f" transform="translate(741.84375 0)"/>
     <use xlink:href="#DejaVuSans-Bold-52" transform="translate(776.125 0)"/>
     <use xlink:href="#DejaVuSans-Bold-4a" transform="translate(844.828125 0)"/>
     <use xlink:href="#DejaVuSans-Bold-4a" transform="translate(916.40625 0)"/>
     <use xlink:href="#DejaVuSans-Bold-4c" transform="translate(987.984375 0)"/>
     <use xlink:href="#DejaVuSans-Bold-51" transform="translate(1022.265625 0)"/>
     <use xlink:href="#DejaVuSans-Bold-4a" transform="translate(1093.453125 0)"/>
    </g>
   </g>
   <g id="patch_25">
    <path d="M 132.846729 446.59976 
L 155.153271 446.59976 
Q 157.121495 446.59976 157.121495 448.657034 
L 157.121495 461.000681 
Q 157.121495 463.057955 155.153271 463.057955 
L 132.846729 463.057955 
Q 130.878505 463.057955 130.878505 461.000681 
L 130.878505 448.657034 
Q 130.878505 446.59976 132.846729 446.59976 
z
" clip-path="url(#p3f8d1fb2ec)" style="fill: #64748b"/>
   </g>
   <g id="text_19">
    <!-- Tap to add a photo -->
    <g style="fill: #64748b" transform="translate(128.576109 472.144409) scale(0.033 -0.033)">
     <use xlink:href="#DejaVuSans-37"/>
     <use xlink:href="#DejaVuSans-44" transform="translate(44.53125 0)"/>
     <use xlink:href="#DejaVuSans-53" transform="translate(105.8125 0)"/>
     <use xlink:href="#DejaVuSans-3" transform="translate(169.296875 0)"/>
     <use xlink:href="#DejaVuSans-57" transform="translate(201.078125 0)"/>
     <use xlink:href="#DejaVuSans-52" transform="translate(240.28125 0)"/>
     <use xlink:href="#DejaVuSans-3" transform="translate(301.46875 0)"/>
     <use xlink:href="#DejaVuSans-44" transform="translate(333.25 0)"/>
     <use xlink:href="#DejaVuSans-47" transform="translate(394.53125 0)"/>
     <use xlink:href="#DejaVuSans-47" transform="translate(458.015625 0)"/>
     <use xlink:href="#DejaVuSans-3" transform="translate(521.5 0)"/>
     <use xlink:href="#DejaVuSans-44" transform="translate(553.28125 0)"/>
     <use xlink:href="#DejaVuSans-3" transform="translate(614.5625 0)"/>
     <use xlink:href="#DejaVuSans-53" transform="translate(646.34375 0)"/>
     <use xlink:href="#DejaVuSans-4b" transform="translate(709.828125 0)"/>
     <use xlink:href="#DejaVuSans-52" transform="translate(773.203125 0)"/>
     <use xlink:href="#DejaVuSans-57" transform="translate(834.390625 0)"/>
     <use xlink:href="#DejaVuSans-52" transform="translate(873.59375 0)"/>
    </g>
   </g>
   <g id="text_20">
    <!-- Optional note… -->
    <g style="fill: #64748b" transform="translate(45.588785 498.914957) scale(0.034 -0.034)">
     <defs>
      <path id="DejaVuSans-32" d="M 2522 4238 
Q 1834 4238 1429 3725 
Q 1025 3213 1025 2328 
Q 1025 1447 1429 934 
Q 1834 422 2522 422 
Q 3209 422 3611 934 
Q 4013 1447 4013 2328 
Q 4013 3213 3611 3725 
Q 3209 4238 2522 4238 
z
M 2522 4750 
Q 3503 4750 4090 4092 
Q 4678 3434 4678 2328 
Q 4678 1225 4090 567 
Q 3503 -91 2522 -91 
Q 1538 -91 948 565 
Q 359 1222 359 2328 
Q 359 3434 948 4092 
Q 1538 4750 2522 4750 
z
" transform="scale(0.015625)"/>
     </defs>
     <use xlink:href="#DejaVuSans-32"/>
     <use xlink:href="#DejaVuSans-53" transform="translate(78.71875 0)"/>
     <use xlink:href="#DejaVuSans-57" transform="translate(142.203125 0)"/>
     <use xlink:href="#DejaVuSans-4c" transform="translate(181.40625 0)"/>
     <use xlink:href="#DejaVuSans-52" transform="translate(209.1875 0)"/>
     <use xlink:href="#DejaVuSans-51" transform="translate(270.375 0)"/>
     <use xlink:href="#DejaVuSans-44" transform="translate(333.75 0)"/>
     <use xlink:href="#DejaVuSans-4f" transform="translate(395.03125 0)"/>
     <use xlink:href="#DejaVuSans-3" transform="translate(422.8125 0)"/>
     <use xlink:href="#DejaVuSans-51" transform="translate(454.59375 0)"/>
     <use xlink:href="#DejaVuSans-52" transform="translate(517.96875 0)"/>
     <use xlink:href="#DejaVuSans-57" transform="translate(579.15625 0)"/>
     <use xlink:href="#DejaVuSans-48" transform="translate(618.359375 0)"/>
     <use xlink:href="#DejaVuSans-b08" transform="translate(679.890625 0)"/>
    </g>
   </g>
   <g id="text_21">
    <!-- Submit report -->
    <g style="fill: #04202b" transform="translate(127.401469 525.867368) scale(0.042 -0.042)">
     <defs>
      <path id="DejaVuSans-Bold-50" d="M 3781 2919 
Q 3994 3244 4286 3414 
Q 4578 3584 4928 3584 
Q 5531 3584 5847 3212 
Q 6163 2841 6163 2131 
L 6163 0 
L 5038 0 
L 5038 1825 
Q 5041 1866 5042 1909 
Q 5044 1953 5044 2034 
Q 5044 2406 4934 2573 
Q 4825 2741 4581 2741 
Q 4263 2741 4089 2478 
Q 3916 2216 3909 1719 
L 3909 0 
L 2784 0 
L 2784 1825 
Q 2784 2406 2684 2573 
Q 2584 2741 2328 2741 
Q 2006 2741 1831 2477 
Q 1656 2213 1656 1722 
L 1656 0 
L 531 0 
L 531 3500 
L 1656 3500 
L 1656 2988 
Q 1863 3284 2130 3434 
Q 2397 3584 2719 3584 
Q 3081 3584 3359 3409 
Q 3638 3234 3781 2919 
z
" transform="scale(0.015625)"/>
     </defs>
     <use xlink:href="#DejaVuSans-Bold-36"/>
     <use xlink:href="#DejaVuSans-Bold-58" transform="translate(72.015625 0)"/>
     <use xlink:href="#DejaVuSans-Bold-45" transform="translate(143.203125 0)"/>
     <use xlink:href="#DejaVuSans-Bold-50" transform="translate(214.78125 0)"/>
     <use xlink:href="#DejaVuSans-Bold-4c" transform="translate(318.984375 0)"/>
     <use xlink:href="#DejaVuSans-Bold-57" transform="translate(353.265625 0)"/>
     <use xlink:href="#DejaVuSans-Bold-3" transform="translate(401.0625 0)"/>
     <use xlink:href="#DejaVuSans-Bold-55" transform="translate(435.875 0)"/>
     <use xlink:href="#DejaVuSans-Bold-48" transform="translate(485.1875 0)"/>
     <use xlink:href="#DejaVuSans-Bold-53" transform="translate(553.015625 0)"/>
     <use xlink:href="#DejaVuSans-Bold-52" transform="translate(624.59375 0)"/>
     <use xlink:href="#DejaVuSans-Bold-55" transform="translate(693.296875 0)"/>
     <use xlink:href="#DejaVuSans-Bold-57" transform="translate(742.609375 0)"/>
    </g>
   </g>
   <g id="text_22">
    <!-- Complaint-verified waterlogging risk — -->
    <g style="fill: #64748b" transform="translate(114.719297 553.671686) scale(0.03 -0.03)">
     <defs>
      <path id="DejaVuSans-10" d="M 313 2009 
L 1997 2009 
L 1997 1497 
L 313 1497 
L 313 2009 
z
" transform="scale(0.015625)"/>
      <path id="DejaVuSans-13af" d="M 3431 3500 
L 3431 0 
L 2853 0 
L 2853 3053 
L 1275 3053 
L 1275 0 
L 697 0 
L 697 3053 
L 147 3053 
L 147 3500 
L 697 3500 
L 697 3744 
Q 697 4316 967 4589 
Q 1238 4863 1797 4863 
L 2375 4863 
L 2375 4384 
L 1825 4384 
Q 1516 4384 1395 4259 
Q 1275 4134 1275 3809 
L 1275 3500 
L 3431 3500 
z
M 2853 4856 
L 3431 4856 
L 3431 4128 
L 2853 4128 
L 2853 4856 
z
" transform="scale(0.015625)"/>
      <path id="DejaVuSans-af6" d="M 313 1978 
L 6088 1978 
L 6088 1528 
L 313 1528 
L 313 1978 
z
" transform="scale(0.015625)"/>
     </defs>
     <use xlink:href="#DejaVuSans-26"/>
     <use xlink:href="#DejaVuSans-52" transform="translate(69.828125 0)"/>
     <use xlink:href="#DejaVuSans-50" transform="translate(131.015625 0)"/>
     <use xlink:href="#DejaVuSans-53" transform="translate(228.421875 0)"/>
     <use xlink:href="#DejaVuSans-4f" transform="translate(291.90625 0)"/>
     <use xlink:href="#DejaVuSans-44" transform="translate(319.6875 0)"/>
     <use xlink:href="#DejaVuSans-4c" transform="translate(380.96875 0)"/>
     <use xlink:href="#DejaVuSans-51" transform="translate(408.75 0)"/>
     <use xlink:href="#DejaVuSans-57" transform="translate(472.125 0)"/>
     <use xlink:href="#DejaVuSans-10" transform="translate(511.328125 0)"/>
     <use xlink:href="#DejaVuSans-59" transform="translate(544.71875 0)"/>
     <use xlink:href="#DejaVuSans-48" transform="translate(603.90625 0)"/>
     <use xlink:href="#DejaVuSans-55" transform="translate(665.4375 0)"/>
     <use xlink:href="#DejaVuSans-4c" transform="translate(706.546875 0)"/>
     <use xlink:href="#DejaVuSans-13af" transform="translate(734.328125 0)"/>
     <use xlink:href="#DejaVuSans-48" transform="translate(797.3125 0)"/>
     <use xlink:href="#DejaVuSans-47" transform="translate(858.84375 0)"/>
     <use xlink:href="#DejaVuSans-3" transform="translate(922.328125 0)"/>
     <use xlink:href="#DejaVuSans-5a" transform="translate(954.109375 0)"/>
     <use xlink:href="#DejaVuSans-44" transform="translate(1035.890625 0)"/>
     <use xlink:href="#DejaVuSans-57" transform="translate(1097.171875 0)"/>
     <use xlink:href="#DejaVuSans-48" transform="translate(1136.375 0)"/>
     <use xlink:href="#DejaVuSans-55" transform="translate(1197.90625 0)"/>
     <use xlink:href="#DejaVuSans-4f" transform="translate(1239.015625 0)"/>
     <use xlink:href="#DejaVuSans-52" transform="translate(1266.796875 0)"/>
     <use xlink:href="#DejaVuSans-4a" transform="translate(1327.984375 0)"/>
     <use xlink:href="#DejaVuSans-4a" transform="translate(1391.46875 0)"/>
     <use xlink:href="#DejaVuSans-4c" transform="translate(1454.953125 0)"/>
     <use xlink:href="#DejaVuSans-51" transform="translate(1482.734375 0)"/>
     <use xlink:href="#DejaVuSans-4a" transform="translate(1546.109375 0)"/>
     <use xlink:href="#DejaVuSans-3" transform="translate(1609.59375 0)"/>
     <use xlink:href="#DejaVuSans-55" transform="translate(1641.375 0)"/>
     <use xlink:href="#DejaVuSans-4c" transform="translate(1682.484375 0)"/>
     <use xlink:href="#DejaVuSans-56" transform="translate(1710.265625 0)"/>
     <use xlink:href="#DejaVuSans-4e" transform="translate(1762.359375 0)"/>
     <use xlink:href="#DejaVuSans-3" transform="translate(1820.265625 0)"/>
     <use xlink:href="#DejaVuSans-af6" transform="translate(1852.046875 0)"/>
    </g>
   </g>
   <g id="text_23">
    <!-- not a guaranteed forecast. -->
    <g style="fill: #64748b" transform="translate(123.956719 566.015333) scale(0.03 -0.03)">
     <use xlink:href="#DejaVuSans-51"/>
     <use xlink:href="#DejaVuSans-52" transform="translate(63.375 0)"/>
     <use xlink:href="#DejaVuSans-57" transform="translate(124.5625 0)"/>
     <use xlink:href="#DejaVuSans-3" transform="translate(163.765625 0)"/>
     <use xlink:href="#DejaVuSans-44" transform="translate(195.546875 0)"/>
     <use xlink:href="#DejaVuSans-3" transform="translate(256.828125 0)"/>
     <use xlink:href="#DejaVuSans-4a" transform="translate(288.609375 0)"/>
     <use xlink:href="#DejaVuSans-58" transform="translate(352.09375 0)"/>
     <use xlink:href="#DejaVuSans-44" transform="translate(415.46875 0)"/>
     <use xlink:href="#DejaVuSans-55" transform="translate(476.75 0)"/>
     <use xlink:href="#DejaVuSans-44" transform="translate(517.859375 0)"/>
     <use xlink:href="#DejaVuSans-51" transform="translate(579.140625 0)"/>
     <use xlink:href="#DejaVuSans-57" transform="translate(642.515625 0)"/>
     <use xlink:href="#DejaVuSans-48" transform="translate(681.71875 0)"/>
     <use xlink:href="#DejaVuSans-48" transform="translate(743.25 0)"/>
     <use xlink:href="#DejaVuSans-47" transform="translate(804.78125 0)"/>
     <use xlink:href="#DejaVuSans-3" transform="translate(868.265625 0)"/>
     <use xlink:href="#DejaVuSans-49" transform="translate(900.046875 0)"/>
     <use xlink:href="#DejaVuSans-52" transform="translate(935.25 0)"/>
     <use xlink:href="#DejaVuSans-55" transform="translate(996.4375 0)"/>
     <use xlink:href="#DejaVuSans-48" transform="translate(1035.34375 0)"/>
     <use xlink:href="#DejaVuSans-46" transform="translate(1096.875 0)"/>
     <use xlink:href="#DejaVuSans-44" transform="translate(1151.859375 0)"/>
     <use xlink:href="#DejaVuSans-56" transform="translate(1213.140625 0)"/>
     <use xlink:href="#DejaVuSans-57" transform="translate(1265.234375 0)"/>
     <use xlink:href="#DejaVuSans-11" transform="translate(1304.4375 0)"/>
    </g>
   </g>
   <g id="patch_26">
    <path d="M 144 448.314155 
C 145.652934 448.314155 147.238391 449.000586 148.407192 450.222268 
C 149.575993 451.44395 150.23271 453.101138 150.23271 454.828858 
C 150.23271 456.556577 149.575993 458.213766 148.407192 459.435448 
C 147.238391 460.65713 145.652934 461.34356 144 461.34356 
C 142.347066 461.34356 140.761609 460.65713 139.592808 459.435448 
C 138.424007 458.213766 137.76729 456.556577 137.76729 454.828858 
C 137.76729 453.101138 138.424007 451.44395 139.592808 450.222268 
C 140.761609 449.000586 142.347066 448.314155 144 448.314155 
z
" clip-path="url(#p3f8d1fb2ec)" style="fill: #050810; stroke: #64748b; stroke-width: 0.8; stroke-linejoin: miter"/>
   </g>
  </g>
 </g>
 <defs>
  <clipPath id="p3f8d1fb2ec">
   <rect x="3.6" y="3.6" width="280.8" height="554.092579"/>
  </clipPath>
 </defs>
</svg>
